<svg xmlns="http://www.w3.org/2000/svg" xmlns:xlink="http://www.w3.org/1999/xlink" width="345" zoomAndPan="magnify" viewBox="0 0 258.75 62.999997" height="84" preserveAspectRatio="xMidYMid meet" version="1.0"><defs><g/><clipPath id="255ace753e"><path d="M 0 0.03125 L 258.5 0.03125 L 258.5 62.96875 L 0 62.96875 Z M 0 0.03125 " clip-rule="nonzero"/></clipPath><clipPath id="9f837872cb"><path d="M 6.296875 6.941406 L 252.054688 6.941406 L 252.054688 57.140625 L 6.296875 57.140625 Z M 6.296875 6.941406 " clip-rule="nonzero"/></clipPath><clipPath id="18a0c57e9b"><path d="M 10.789062 6.941406 L 247.699219 6.941406 C 248.890625 6.941406 250.035156 7.414062 250.878906 8.257812 C 251.722656 9.101562 252.195312 10.242188 252.195312 11.433594 L 252.195312 52.925781 C 252.195312 54.121094 251.722656 55.261719 250.878906 56.105469 C 250.035156 56.949219 248.890625 57.421875 247.699219 57.421875 L 10.789062 57.421875 C 9.597656 57.421875 8.457031 56.949219 7.613281 56.105469 C 6.769531 55.261719 6.296875 54.121094 6.296875 52.925781 L 6.296875 11.433594 C 6.296875 10.242188 6.769531 9.101562 7.613281 8.257812 C 8.457031 7.414062 9.597656 6.941406 10.789062 6.941406 Z M 10.789062 6.941406 " clip-rule="nonzero"/></clipPath><clipPath id="beafd9539d"><path d="M 66.746094 14.835938 L 241 14.835938 L 241 48.164062 L 66.746094 48.164062 Z M 66.746094 14.835938 " clip-rule="nonzero"/></clipPath><clipPath id="619b69d58a"><path d="M 69.742188 14.835938 L 237.96875 14.835938 C 239.621094 14.835938 240.964844 16.175781 240.964844 17.832031 L 240.964844 45.167969 C 240.964844 46.824219 239.621094 48.164062 237.96875 48.164062 L 69.742188 48.164062 C 68.085938 48.164062 66.746094 46.824219 66.746094 45.167969 L 66.746094 17.832031 C 66.746094 16.175781 68.085938 14.835938 69.742188 14.835938 Z M 69.742188 14.835938 " clip-rule="nonzero"/></clipPath></defs><g clip-path="url(#255ace753e)"><path fill="#ffffff" d="M 0 0.03125 L 258.5 0.03125 L 258.5 62.96875 L 0 62.96875 Z M 0 0.03125 " fill-opacity="1" fill-rule="nonzero"/><path fill="#ffffff" d="M 0 0.03125 L 258.5 0.03125 L 258.5 62.96875 L 0 62.96875 Z M 0 0.03125 " fill-opacity="1" fill-rule="nonzero"/></g><g clip-path="url(#9f837872cb)"><g clip-path="url(#18a0c57e9b)"><path stroke-linecap="butt" transform="matrix(0.749276, 0, 0, 0.749276, 6.295393, 6.939947)" fill="none" stroke-linejoin="miter" d="M 5.997349 0.00194737 L 322.182748 0.00194737 C 323.772825 0.00194737 325.300341 0.632765 326.426428 1.758852 C 327.552515 2.884938 328.183332 4.407241 328.183332 5.997318 L 328.183332 61.373685 C 328.183332 62.968975 327.552515 64.491278 326.426428 65.617365 C 325.300341 66.743452 323.772825 67.374269 322.182748 67.374269 L 5.997349 67.374269 C 4.407272 67.374269 2.88497 66.743452 1.758883 65.617365 C 0.632796 64.491278 0.00197856 62.968975 0.00197856 61.373685 L 0.00197856 5.997318 C 0.00197856 4.407241 0.632796 2.884938 1.758883 1.758852 C 2.88497 0.632765 4.407272 0.00194737 5.997349 0.00194737 Z M 5.997349 0.00194737 " stroke="#3c6a92" stroke-width="4" stroke-opacity="1" stroke-miterlimit="4"/></g></g><g clip-path="url(#beafd9539d)"><g clip-path="url(#619b69d58a)"><path fill="#3c6a92" d="M 66.746094 14.835938 L 240.945312 14.835938 L 240.945312 48.164062 L 66.746094 48.164062 Z M 66.746094 14.835938 " fill-opacity="1" fill-rule="nonzero"/></g></g><g fill="#a3c4e6" fill-opacity="0.4"><g transform="translate(78.347953, 41.438371)"><g><path d="M 0.640625 -14.921875 C 0.453125 -15.054688 0.394531 -15.25 0.46875 -15.5 C 0.539062 -15.75 0.6875 -15.875 0.90625 -15.875 L 7.953125 -15.890625 C 9.972656 -15.910156 11.726562 -15.742188 13.21875 -15.390625 C 14.707031 -15.035156 15.851562 -14.503906 16.65625 -13.796875 C 17.46875 -13.097656 17.875 -12.222656 17.875 -11.171875 C 17.875 -10.179688 17.507812 -9.351562 16.78125 -8.6875 C 16.0625 -8.019531 15.046875 -7.503906 13.734375 -7.140625 C 14.160156 -7.066406 14.59375 -6.820312 15.03125 -6.40625 C 15.476562 -5.988281 15.863281 -5.367188 16.1875 -4.546875 L 17.4375 -1.90625 C 17.625 -1.507812 17.921875 -1.238281 18.328125 -1.09375 C 18.429688 -1.050781 18.535156 -1.003906 18.640625 -0.953125 C 18.828125 -0.816406 18.882812 -0.625 18.8125 -0.375 C 18.738281 -0.125 18.585938 0 18.359375 0 L 10.8125 0 C 10.582031 0 10.429688 -0.125 10.359375 -0.375 C 10.285156 -0.625 10.34375 -0.816406 10.53125 -0.953125 C 10.59375 -0.992188 10.660156 -1.03125 10.734375 -1.0625 C 10.804688 -1.101562 10.867188 -1.144531 10.921875 -1.1875 C 11.316406 -1.375 11.425781 -1.675781 11.25 -2.09375 L 11.1875 -2.21875 L 11.21875 -2.21875 L 10.515625 -3.875 C 10.171875 -4.644531 9.835938 -5.21875 9.515625 -5.59375 C 9.191406 -5.96875 8.867188 -6.21875 8.546875 -6.34375 C 8.222656 -6.46875 7.878906 -6.53125 7.515625 -6.53125 L 7.0625 -6.53125 L 7.0625 -2.15625 C 7.0625 -1.738281 7.25 -1.414062 7.625 -1.1875 C 7.695312 -1.15625 7.765625 -1.117188 7.828125 -1.078125 C 7.890625 -1.035156 7.945312 -0.992188 8 -0.953125 C 8.1875 -0.816406 8.242188 -0.625 8.171875 -0.375 C 8.097656 -0.125 7.945312 0 7.71875 0 L 0.921875 0 C 0.691406 0 0.539062 -0.125 0.46875 -0.375 C 0.394531 -0.625 0.453125 -0.816406 0.640625 -0.953125 C 0.691406 -0.992188 0.757812 -1.035156 0.84375 -1.078125 C 0.925781 -1.117188 1.003906 -1.160156 1.078125 -1.203125 C 1.234375 -1.273438 1.367188 -1.390625 1.484375 -1.546875 C 1.597656 -1.710938 1.660156 -1.882812 1.671875 -2.0625 L 1.671875 -13.71875 C 1.671875 -14.144531 1.472656 -14.46875 1.078125 -14.6875 C 0.992188 -14.726562 0.910156 -14.769531 0.828125 -14.8125 C 0.753906 -14.863281 0.691406 -14.898438 0.640625 -14.921875 Z M 7.0625 -13.890625 L 7.0625 -8.515625 C 7.0625 -8.316406 7.125 -8.15625 7.25 -8.03125 C 7.375 -7.90625 7.53125 -7.84375 7.71875 -7.84375 C 9.34375 -7.84375 10.539062 -8.101562 11.3125 -8.625 C 12.09375 -9.144531 12.484375 -9.984375 12.484375 -11.140625 C 12.484375 -12.316406 12.101562 -13.175781 11.34375 -13.71875 C 10.582031 -14.269531 9.375 -14.554688 7.71875 -14.578125 C 7.53125 -14.578125 7.375 -14.515625 7.25 -14.390625 C 7.125 -14.265625 7.0625 -14.097656 7.0625 -13.890625 Z M 7.0625 -13.890625 "/></g></g></g><g fill="#a3c4e6" fill-opacity="0.4"><g transform="translate(97.850098, 41.438371)"><g><path d="M 0.640625 -14.953125 C 0.453125 -15.078125 0.394531 -15.265625 0.46875 -15.515625 C 0.539062 -15.765625 0.6875 -15.890625 0.90625 -15.890625 L 13.515625 -15.890625 C 13.722656 -15.890625 13.90625 -15.832031 14.0625 -15.71875 C 14.21875 -15.601562 14.316406 -15.441406 14.359375 -15.234375 C 14.429688 -14.941406 14.515625 -14.585938 14.609375 -14.171875 C 14.703125 -13.765625 14.78125 -13.363281 14.84375 -12.96875 C 14.882812 -12.664062 14.832031 -12.4375 14.6875 -12.28125 C 14.550781 -12.125 14.382812 -12.046875 14.1875 -12.046875 C 13.863281 -12.046875 13.578125 -12.222656 13.328125 -12.578125 C 13.128906 -12.878906 12.925781 -13.179688 12.71875 -13.484375 C 12.519531 -13.796875 12.222656 -14.054688 11.828125 -14.265625 C 11.441406 -14.472656 10.867188 -14.578125 10.109375 -14.578125 L 7.71875 -14.578125 C 7.53125 -14.578125 7.375 -14.515625 7.25 -14.390625 C 7.125 -14.273438 7.0625 -14.117188 7.0625 -13.921875 L 7.0625 -8.90625 L 8.640625 -8.90625 C 9.210938 -8.90625 9.648438 -8.96875 9.953125 -9.09375 C 10.265625 -9.21875 10.488281 -9.375 10.625 -9.5625 C 10.769531 -9.75 10.875 -9.9375 10.9375 -10.125 C 11 -10.320312 11.078125 -10.484375 11.171875 -10.609375 C 11.273438 -10.742188 11.425781 -10.820312 11.625 -10.84375 C 11.863281 -10.851562 12.046875 -10.679688 12.171875 -10.328125 C 12.304688 -9.984375 12.390625 -9.550781 12.421875 -9.03125 C 12.453125 -8.519531 12.441406 -8.007812 12.390625 -7.5 C 12.335938 -7 12.238281 -6.578125 12.09375 -6.234375 C 11.945312 -5.898438 11.753906 -5.742188 11.515625 -5.765625 C 11.316406 -5.773438 11.175781 -5.84375 11.09375 -5.96875 C 11.019531 -6.101562 10.953125 -6.265625 10.890625 -6.453125 C 10.835938 -6.640625 10.742188 -6.816406 10.609375 -6.984375 C 10.472656 -7.160156 10.253906 -7.304688 9.953125 -7.421875 C 9.648438 -7.546875 9.210938 -7.609375 8.640625 -7.609375 L 7.0625 -7.609375 L 7.0625 -1.984375 C 7.0625 -1.785156 7.125 -1.625 7.25 -1.5 C 7.375 -1.375 7.53125 -1.3125 7.71875 -1.3125 L 10.546875 -1.3125 C 11.316406 -1.3125 11.894531 -1.414062 12.28125 -1.625 C 12.664062 -1.832031 12.957031 -2.085938 13.15625 -2.390625 C 13.363281 -2.703125 13.566406 -3.003906 13.765625 -3.296875 C 13.992188 -3.660156 14.285156 -3.84375 14.640625 -3.84375 C 14.847656 -3.84375 15.019531 -3.757812 15.15625 -3.59375 C 15.289062 -3.4375 15.332031 -3.210938 15.28125 -2.921875 C 15.21875 -2.523438 15.140625 -2.117188 15.046875 -1.703125 C 14.953125 -1.285156 14.867188 -0.929688 14.796875 -0.640625 C 14.753906 -0.453125 14.660156 -0.296875 14.515625 -0.171875 C 14.367188 -0.0546875 14.191406 0 13.984375 0 L 0.90625 0 C 0.6875 0 0.539062 -0.125 0.46875 -0.375 C 0.394531 -0.625 0.453125 -0.816406 0.640625 -0.953125 C 0.742188 -1.023438 0.890625 -1.109375 1.078125 -1.203125 C 1.472656 -1.410156 1.671875 -1.726562 1.671875 -2.15625 L 1.671875 -13.734375 C 1.671875 -14.179688 1.472656 -14.5 1.078125 -14.6875 C 0.890625 -14.789062 0.742188 -14.878906 0.640625 -14.953125 Z M 0.640625 -14.953125 "/></g></g></g><g fill="#a3c4e6" fill-opacity="0.4"><g transform="translate(114.076242, 41.438371)"><g><path d="M 0.640625 -14.921875 C 0.453125 -15.054688 0.394531 -15.25 0.46875 -15.5 C 0.539062 -15.75 0.6875 -15.875 0.90625 -15.875 L 7.953125 -15.890625 C 9.972656 -15.910156 11.726562 -15.625 13.21875 -15.03125 C 14.707031 -14.4375 15.851562 -13.546875 16.65625 -12.359375 C 17.46875 -11.179688 17.875 -9.707031 17.875 -7.9375 C 17.875 -6.164062 17.46875 -4.691406 16.65625 -3.515625 C 15.851562 -2.347656 14.710938 -1.46875 13.234375 -0.875 C 11.753906 -0.289062 9.992188 0 7.953125 0 L 0.90625 0 C 0.6875 0 0.539062 -0.125 0.46875 -0.375 C 0.394531 -0.625 0.453125 -0.816406 0.640625 -0.953125 C 0.742188 -1.023438 0.890625 -1.109375 1.078125 -1.203125 C 1.472656 -1.410156 1.671875 -1.726562 1.671875 -2.15625 L 1.671875 -13.71875 C 1.671875 -14.144531 1.472656 -14.46875 1.078125 -14.6875 C 0.992188 -14.726562 0.910156 -14.769531 0.828125 -14.8125 C 0.753906 -14.863281 0.691406 -14.898438 0.640625 -14.921875 Z M 7.0625 -1.984375 C 7.0625 -1.785156 7.125 -1.625 7.25 -1.5 C 7.375 -1.375 7.53125 -1.3125 7.71875 -1.3125 C 9.34375 -1.3125 10.539062 -1.847656 11.3125 -2.921875 C 12.09375 -3.992188 12.484375 -5.660156 12.484375 -7.921875 C 12.484375 -10.171875 12.101562 -11.835938 11.34375 -12.921875 C 10.582031 -14.003906 9.375 -14.554688 7.71875 -14.578125 C 7.53125 -14.578125 7.375 -14.515625 7.25 -14.390625 C 7.125 -14.265625 7.0625 -14.097656 7.0625 -13.890625 Z M 7.0625 -1.984375 "/></g></g></g><g fill="#a3c4e6" fill-opacity="0.4"><g transform="translate(131.181563, 41.438371)"><g><path d="M 1.03125 0 C 0.800781 0 0.648438 -0.125 0.578125 -0.375 C 0.503906 -0.625 0.5625 -0.816406 0.75 -0.953125 C 0.832031 -1.003906 0.914062 -1.054688 1 -1.109375 C 1.09375 -1.160156 1.191406 -1.21875 1.296875 -1.28125 C 1.734375 -1.5 2.019531 -1.773438 2.15625 -2.109375 L 7.296875 -14.84375 L 6.796875 -16.203125 C 6.734375 -16.390625 6.738281 -16.535156 6.8125 -16.640625 C 6.882812 -16.742188 7.015625 -16.789062 7.203125 -16.78125 L 11.734375 -16.515625 C 11.941406 -16.492188 12.128906 -16.425781 12.296875 -16.3125 C 12.460938 -16.195312 12.578125 -16.039062 12.640625 -15.84375 L 18.078125 -2.109375 C 18.234375 -1.722656 18.507812 -1.421875 18.90625 -1.203125 C 18.976562 -1.160156 19.050781 -1.117188 19.125 -1.078125 C 19.195312 -1.035156 19.265625 -0.992188 19.328125 -0.953125 C 19.515625 -0.816406 19.570312 -0.625 19.5 -0.375 C 19.425781 -0.125 19.269531 0 19.03125 0 L 11.5625 0 C 11.34375 0 11.195312 -0.125 11.125 -0.375 C 11.050781 -0.625 11.109375 -0.816406 11.296875 -0.953125 C 11.359375 -0.972656 11.414062 -1.007812 11.46875 -1.0625 C 11.53125 -1.113281 11.59375 -1.160156 11.65625 -1.203125 C 11.988281 -1.503906 12.097656 -1.835938 11.984375 -2.203125 L 11.21875 -4.3125 L 4.609375 -4.3125 L 3.84375 -2.328125 L 3.78125 -2.109375 C 3.707031 -1.921875 3.695312 -1.726562 3.75 -1.53125 C 3.8125 -1.34375 3.914062 -1.191406 4.0625 -1.078125 C 4.09375 -1.066406 4.125 -1.046875 4.15625 -1.015625 C 4.195312 -0.992188 4.234375 -0.972656 4.265625 -0.953125 C 4.453125 -0.816406 4.507812 -0.625 4.4375 -0.375 C 4.363281 -0.125 4.21875 0 4 0 Z M 8.03125 -12.890625 L 5.140625 -5.609375 L 10.734375 -5.609375 Z M 8.03125 -12.890625 "/></g></g></g><g fill="#a3c4e6" fill-opacity="0.4"><g transform="translate(149.935884, 41.438371)"><g><path d="M 0.765625 -7.953125 C 0.710938 -9.628906 1.019531 -11.085938 1.6875 -12.328125 C 2.351562 -13.566406 3.34375 -14.523438 4.65625 -15.203125 C 5.96875 -15.878906 7.550781 -16.21875 9.40625 -16.21875 C 11.414062 -16.21875 13.054688 -15.890625 14.328125 -15.234375 C 15.609375 -14.578125 16.453125 -13.679688 16.859375 -12.546875 C 16.992188 -12.222656 17.0625 -11.859375 17.0625 -11.453125 C 17.0625 -11.046875 16.988281 -10.65625 16.84375 -10.28125 C 16.695312 -9.90625 16.453125 -9.582031 16.109375 -9.3125 C 15.765625 -9.050781 15.304688 -8.898438 14.734375 -8.859375 C 14.097656 -8.816406 13.523438 -8.894531 13.015625 -9.09375 C 12.503906 -9.289062 12.109375 -9.613281 11.828125 -10.0625 C 11.546875 -10.507812 11.425781 -11.078125 11.46875 -11.765625 C 11.539062 -12.671875 11.441406 -13.359375 11.171875 -13.828125 C 10.898438 -14.296875 10.535156 -14.601562 10.078125 -14.75 C 9.617188 -14.894531 9.117188 -14.929688 8.578125 -14.859375 C 7.796875 -14.773438 7.210938 -14.410156 6.828125 -13.765625 C 6.453125 -13.117188 6.226562 -12.265625 6.15625 -11.203125 C 6.082031 -10.148438 6.125 -8.941406 6.28125 -7.578125 C 6.375 -6.816406 6.53125 -6.082031 6.75 -5.375 C 6.976562 -4.664062 7.289062 -4.035156 7.6875 -3.484375 C 8.082031 -2.929688 8.582031 -2.492188 9.1875 -2.171875 C 9.800781 -1.847656 10.539062 -1.6875 11.40625 -1.6875 C 12.519531 -1.6875 13.476562 -2.050781 14.28125 -2.78125 C 15.082031 -3.507812 15.578125 -4.507812 15.765625 -5.78125 C 15.804688 -6.09375 15.890625 -6.394531 16.015625 -6.6875 C 16.148438 -6.976562 16.40625 -7.109375 16.78125 -7.078125 C 17.113281 -7.066406 17.320312 -6.910156 17.40625 -6.609375 C 17.5 -6.316406 17.523438 -5.988281 17.484375 -5.625 C 17.242188 -3.675781 16.4375 -2.203125 15.0625 -1.203125 C 13.695312 -0.210938 11.859375 0.28125 9.546875 0.28125 C 7.679688 0.28125 6.109375 -0.0703125 4.828125 -0.78125 C 3.546875 -1.488281 2.5625 -2.460938 1.875 -3.703125 C 1.195312 -4.941406 0.828125 -6.359375 0.765625 -7.953125 Z M 0.765625 -7.953125 "/></g></g></g><g fill="#a3c4e6" fill-opacity="0.4"><g transform="translate(167.283208, 41.438371)"><g><path d="M 2.09375 -12.625 C 1.851562 -12.269531 1.554688 -12.09375 1.203125 -12.09375 C 1.003906 -12.09375 0.832031 -12.164062 0.6875 -12.3125 C 0.550781 -12.46875 0.515625 -12.703125 0.578125 -13.015625 C 0.628906 -13.398438 0.703125 -13.800781 0.796875 -14.21875 C 0.898438 -14.632812 0.988281 -14.988281 1.0625 -15.28125 C 1.101562 -15.488281 1.195312 -15.644531 1.34375 -15.75 C 1.5 -15.863281 1.675781 -15.921875 1.875 -15.921875 L 15.40625 -15.921875 C 15.851562 -15.921875 16.132812 -15.707031 16.25 -15.28125 C 16.320312 -14.988281 16.398438 -14.632812 16.484375 -14.21875 C 16.578125 -13.800781 16.648438 -13.398438 16.703125 -13.015625 C 16.765625 -12.703125 16.722656 -12.46875 16.578125 -12.3125 C 16.441406 -12.164062 16.273438 -12.09375 16.078125 -12.09375 C 15.734375 -12.09375 15.4375 -12.269531 15.1875 -12.625 C 15 -12.925781 14.804688 -13.226562 14.609375 -13.53125 C 14.410156 -13.84375 14.113281 -14.101562 13.71875 -14.3125 C 13.320312 -14.519531 12.742188 -14.625 11.984375 -14.625 L 11.34375 -14.625 L 11.34375 -2.15625 C 11.34375 -1.757812 11.523438 -1.4375 11.890625 -1.1875 C 11.960938 -1.15625 12.03125 -1.117188 12.09375 -1.078125 C 12.164062 -1.035156 12.234375 -0.992188 12.296875 -0.953125 C 12.484375 -0.816406 12.535156 -0.625 12.453125 -0.375 C 12.367188 -0.125 12.210938 0 11.984375 0 L 5.1875 0 C 4.96875 0 4.820312 -0.125 4.75 -0.375 C 4.675781 -0.625 4.726562 -0.816406 4.90625 -0.953125 C 4.976562 -0.992188 5.050781 -1.035156 5.125 -1.078125 C 5.195312 -1.117188 5.269531 -1.160156 5.34375 -1.203125 C 5.53125 -1.296875 5.675781 -1.429688 5.78125 -1.609375 C 5.882812 -1.785156 5.941406 -1.96875 5.953125 -2.15625 L 5.953125 -14.625 L 5.296875 -14.625 C 4.535156 -14.625 3.957031 -14.519531 3.5625 -14.3125 C 3.175781 -14.101562 2.882812 -13.84375 2.6875 -13.53125 C 2.488281 -13.226562 2.289062 -12.925781 2.09375 -12.625 Z M 2.09375 -12.625 "/></g></g></g><g fill="#a3c4e6" fill-opacity="0.4"><g transform="translate(184.564702, 41.438371)"><g><path d="M 1.78125 0 C 1.5625 0 1.414062 -0.125 1.34375 -0.375 C 1.269531 -0.625 1.328125 -0.816406 1.515625 -0.953125 C 1.617188 -1.023438 1.765625 -1.109375 1.953125 -1.203125 C 2.347656 -1.410156 2.546875 -1.726562 2.546875 -2.15625 L 2.546875 -13.78125 C 2.546875 -14.21875 2.347656 -14.535156 1.953125 -14.734375 C 1.765625 -14.835938 1.617188 -14.925781 1.515625 -15 C 1.328125 -15.125 1.269531 -15.3125 1.34375 -15.5625 C 1.414062 -15.8125 1.5625 -15.9375 1.78125 -15.9375 L 8.59375 -15.9375 C 8.832031 -15.9375 8.988281 -15.8125 9.0625 -15.5625 C 9.132812 -15.3125 9.070312 -15.125 8.875 -15 C 8.820312 -14.945312 8.757812 -14.898438 8.6875 -14.859375 C 8.625 -14.816406 8.566406 -14.78125 8.515625 -14.75 C 8.128906 -14.519531 7.9375 -14.195312 7.9375 -13.78125 L 7.9375 -2.15625 C 7.9375 -1.738281 8.128906 -1.414062 8.515625 -1.1875 C 8.566406 -1.15625 8.625 -1.117188 8.6875 -1.078125 C 8.757812 -1.035156 8.820312 -0.992188 8.875 -0.953125 C 9.070312 -0.816406 9.132812 -0.625 9.0625 -0.375 C 8.988281 -0.125 8.832031 0 8.59375 0 Z M 1.78125 0 "/></g></g></g><g fill="#a3c4e6" fill-opacity="0.4"><g transform="translate(194.524553, 41.438371)"><g><path d="M 0.765625 -7.953125 C 0.765625 -9.628906 1.09375 -11.085938 1.75 -12.328125 C 2.414062 -13.566406 3.390625 -14.523438 4.671875 -15.203125 C 5.953125 -15.878906 7.523438 -16.21875 9.390625 -16.21875 C 11.265625 -16.21875 12.84375 -15.878906 14.125 -15.203125 C 15.40625 -14.523438 16.375 -13.566406 17.03125 -12.328125 C 17.695312 -11.085938 18.03125 -9.628906 18.03125 -7.953125 C 18.039062 -6.285156 17.710938 -4.835938 17.046875 -3.609375 C 16.378906 -2.378906 15.40625 -1.421875 14.125 -0.734375 C 12.84375 -0.0546875 11.265625 0.28125 9.390625 0.28125 C 7.523438 0.28125 5.953125 -0.0546875 4.671875 -0.734375 C 3.390625 -1.421875 2.414062 -2.378906 1.75 -3.609375 C 1.09375 -4.835938 0.765625 -6.285156 0.765625 -7.953125 Z M 8.578125 -14.859375 C 7.796875 -14.773438 7.210938 -14.410156 6.828125 -13.765625 C 6.441406 -13.117188 6.210938 -12.265625 6.140625 -11.203125 C 6.078125 -10.148438 6.125 -8.941406 6.28125 -7.578125 C 6.445312 -6.222656 6.691406 -5.039062 7.015625 -4.03125 C 7.335938 -3.03125 7.757812 -2.265625 8.28125 -1.734375 C 8.8125 -1.210938 9.46875 -0.992188 10.25 -1.078125 C 11.039062 -1.179688 11.617188 -1.550781 11.984375 -2.1875 C 12.359375 -2.820312 12.578125 -3.664062 12.640625 -4.71875 C 12.710938 -5.78125 12.671875 -6.984375 12.515625 -8.328125 C 12.347656 -9.691406 12.101562 -10.878906 11.78125 -11.890625 C 11.457031 -12.898438 11.035156 -13.671875 10.515625 -14.203125 C 9.992188 -14.742188 9.347656 -14.960938 8.578125 -14.859375 Z M 8.578125 -14.859375 "/></g></g></g><g fill="#a3c4e6" fill-opacity="0.4"><g transform="translate(212.993311, 41.438371)"><g><path d="M 0.90625 0 C 0.6875 0 0.539062 -0.125 0.46875 -0.375 C 0.394531 -0.625 0.453125 -0.816406 0.640625 -0.953125 C 0.742188 -1.023438 0.890625 -1.109375 1.078125 -1.203125 C 1.472656 -1.410156 1.671875 -1.726562 1.671875 -2.15625 L 1.671875 -13.78125 C 1.671875 -14.21875 1.472656 -14.535156 1.078125 -14.734375 C 0.890625 -14.835938 0.742188 -14.925781 0.640625 -15 C 0.460938 -15.113281 0.398438 -15.285156 0.453125 -15.515625 C 0.515625 -15.753906 0.640625 -15.894531 0.828125 -15.9375 L 6.625 -15.9375 C 7.0625 -15.9375 7.40625 -15.757812 7.65625 -15.40625 L 15.109375 -4.765625 L 15.109375 -13.78125 C 15.109375 -14.21875 14.910156 -14.535156 14.515625 -14.734375 C 14.316406 -14.835938 14.164062 -14.925781 14.0625 -15 C 13.875 -15.125 13.816406 -15.3125 13.890625 -15.5625 C 13.960938 -15.8125 14.109375 -15.9375 14.328125 -15.9375 L 17.296875 -15.9375 C 17.535156 -15.9375 17.691406 -15.8125 17.765625 -15.5625 C 17.835938 -15.3125 17.78125 -15.125 17.59375 -15 C 17.53125 -14.945312 17.46875 -14.898438 17.40625 -14.859375 C 17.351562 -14.816406 17.289062 -14.78125 17.21875 -14.75 C 16.832031 -14.519531 16.640625 -14.195312 16.640625 -13.78125 L 16.640625 -2.15625 C 16.640625 -1.738281 16.832031 -1.414062 17.21875 -1.1875 C 17.289062 -1.15625 17.351562 -1.117188 17.40625 -1.078125 C 17.46875 -1.035156 17.53125 -0.992188 17.59375 -0.953125 C 17.78125 -0.816406 17.863281 -0.625 17.84375 -0.375 C 17.820312 -0.125 17.640625 0 17.296875 0 L 12.546875 0 C 12.109375 0 11.765625 -0.179688 11.515625 -0.546875 L 3.203125 -12.515625 L 3.203125 -2.15625 C 3.203125 -1.738281 3.394531 -1.414062 3.78125 -1.1875 C 3.84375 -1.15625 3.90625 -1.117188 3.96875 -1.078125 C 4.03125 -1.035156 4.09375 -0.992188 4.15625 -0.953125 C 4.34375 -0.816406 4.398438 -0.625 4.328125 -0.375 C 4.253906 -0.125 4.101562 0 3.875 0 Z M 0.90625 0 "/></g></g></g><g fill="#ffffff" fill-opacity="1"><g transform="translate(77.375927, 40.466342)"><g><path d="M 0.640625 -14.921875 C 0.453125 -15.054688 0.394531 -15.25 0.46875 -15.5 C 0.539062 -15.75 0.6875 -15.875 0.90625 -15.875 L 7.953125 -15.890625 C 9.972656 -15.910156 11.726562 -15.742188 13.21875 -15.390625 C 14.707031 -15.035156 15.851562 -14.503906 16.65625 -13.796875 C 17.46875 -13.097656 17.875 -12.222656 17.875 -11.171875 C 17.875 -10.179688 17.507812 -9.351562 16.78125 -8.6875 C 16.0625 -8.019531 15.046875 -7.503906 13.734375 -7.140625 C 14.160156 -7.066406 14.59375 -6.820312 15.03125 -6.40625 C 15.476562 -5.988281 15.863281 -5.367188 16.1875 -4.546875 L 17.4375 -1.90625 C 17.625 -1.507812 17.921875 -1.238281 18.328125 -1.09375 C 18.429688 -1.050781 18.535156 -1.003906 18.640625 -0.953125 C 18.828125 -0.816406 18.882812 -0.625 18.8125 -0.375 C 18.738281 -0.125 18.585938 0 18.359375 0 L 10.8125 0 C 10.582031 0 10.429688 -0.125 10.359375 -0.375 C 10.285156 -0.625 10.34375 -0.816406 10.53125 -0.953125 C 10.59375 -0.992188 10.660156 -1.03125 10.734375 -1.0625 C 10.804688 -1.101562 10.867188 -1.144531 10.921875 -1.1875 C 11.316406 -1.375 11.425781 -1.675781 11.25 -2.09375 L 11.1875 -2.21875 L 11.21875 -2.21875 L 10.515625 -3.875 C 10.171875 -4.644531 9.835938 -5.21875 9.515625 -5.59375 C 9.191406 -5.96875 8.867188 -6.21875 8.546875 -6.34375 C 8.222656 -6.46875 7.878906 -6.53125 7.515625 -6.53125 L 7.0625 -6.53125 L 7.0625 -2.15625 C 7.0625 -1.738281 7.25 -1.414062 7.625 -1.1875 C 7.695312 -1.15625 7.765625 -1.117188 7.828125 -1.078125 C 7.890625 -1.035156 7.945312 -0.992188 8 -0.953125 C 8.1875 -0.816406 8.242188 -0.625 8.171875 -0.375 C 8.097656 -0.125 7.945312 0 7.71875 0 L 0.921875 0 C 0.691406 0 0.539062 -0.125 0.46875 -0.375 C 0.394531 -0.625 0.453125 -0.816406 0.640625 -0.953125 C 0.691406 -0.992188 0.757812 -1.035156 0.84375 -1.078125 C 0.925781 -1.117188 1.003906 -1.160156 1.078125 -1.203125 C 1.234375 -1.273438 1.367188 -1.390625 1.484375 -1.546875 C 1.597656 -1.710938 1.660156 -1.882812 1.671875 -2.0625 L 1.671875 -13.71875 C 1.671875 -14.144531 1.472656 -14.46875 1.078125 -14.6875 C 0.992188 -14.726562 0.910156 -14.769531 0.828125 -14.8125 C 0.753906 -14.863281 0.691406 -14.898438 0.640625 -14.921875 Z M 7.0625 -13.890625 L 7.0625 -8.515625 C 7.0625 -8.316406 7.125 -8.15625 7.25 -8.03125 C 7.375 -7.90625 7.53125 -7.84375 7.71875 -7.84375 C 9.34375 -7.84375 10.539062 -8.101562 11.3125 -8.625 C 12.09375 -9.144531 12.484375 -9.984375 12.484375 -11.140625 C 12.484375 -12.316406 12.101562 -13.175781 11.34375 -13.71875 C 10.582031 -14.269531 9.375 -14.554688 7.71875 -14.578125 C 7.53125 -14.578125 7.375 -14.515625 7.25 -14.390625 C 7.125 -14.265625 7.0625 -14.097656 7.0625 -13.890625 Z M 7.0625 -13.890625 "/></g></g></g><g fill="#ffffff" fill-opacity="1"><g transform="translate(96.878073, 40.466342)"><g><path d="M 0.640625 -14.953125 C 0.453125 -15.078125 0.394531 -15.265625 0.46875 -15.515625 C 0.539062 -15.765625 0.6875 -15.890625 0.90625 -15.890625 L 13.515625 -15.890625 C 13.722656 -15.890625 13.90625 -15.832031 14.0625 -15.71875 C 14.21875 -15.601562 14.316406 -15.441406 14.359375 -15.234375 C 14.429688 -14.941406 14.515625 -14.585938 14.609375 -14.171875 C 14.703125 -13.765625 14.78125 -13.363281 14.84375 -12.96875 C 14.882812 -12.664062 14.832031 -12.4375 14.6875 -12.28125 C 14.550781 -12.125 14.382812 -12.046875 14.1875 -12.046875 C 13.863281 -12.046875 13.578125 -12.222656 13.328125 -12.578125 C 13.128906 -12.878906 12.925781 -13.179688 12.71875 -13.484375 C 12.519531 -13.796875 12.222656 -14.054688 11.828125 -14.265625 C 11.441406 -14.472656 10.867188 -14.578125 10.109375 -14.578125 L 7.71875 -14.578125 C 7.53125 -14.578125 7.375 -14.515625 7.25 -14.390625 C 7.125 -14.273438 7.0625 -14.117188 7.0625 -13.921875 L 7.0625 -8.90625 L 8.640625 -8.90625 C 9.210938 -8.90625 9.648438 -8.96875 9.953125 -9.09375 C 10.265625 -9.21875 10.488281 -9.375 10.625 -9.5625 C 10.769531 -9.75 10.875 -9.9375 10.9375 -10.125 C 11 -10.320312 11.078125 -10.484375 11.171875 -10.609375 C 11.273438 -10.742188 11.425781 -10.820312 11.625 -10.84375 C 11.863281 -10.851562 12.046875 -10.679688 12.171875 -10.328125 C 12.304688 -9.984375 12.390625 -9.550781 12.421875 -9.03125 C 12.453125 -8.519531 12.441406 -8.007812 12.390625 -7.5 C 12.335938 -7 12.238281 -6.578125 12.09375 -6.234375 C 11.945312 -5.898438 11.753906 -5.742188 11.515625 -5.765625 C 11.316406 -5.773438 11.175781 -5.84375 11.09375 -5.96875 C 11.019531 -6.101562 10.953125 -6.265625 10.890625 -6.453125 C 10.835938 -6.640625 10.742188 -6.816406 10.609375 -6.984375 C 10.472656 -7.160156 10.253906 -7.304688 9.953125 -7.421875 C 9.648438 -7.546875 9.210938 -7.609375 8.640625 -7.609375 L 7.0625 -7.609375 L 7.0625 -1.984375 C 7.0625 -1.785156 7.125 -1.625 7.25 -1.5 C 7.375 -1.375 7.53125 -1.3125 7.71875 -1.3125 L 10.546875 -1.3125 C 11.316406 -1.3125 11.894531 -1.414062 12.28125 -1.625 C 12.664062 -1.832031 12.957031 -2.085938 13.15625 -2.390625 C 13.363281 -2.703125 13.566406 -3.003906 13.765625 -3.296875 C 13.992188 -3.660156 14.285156 -3.84375 14.640625 -3.84375 C 14.847656 -3.84375 15.019531 -3.757812 15.15625 -3.59375 C 15.289062 -3.4375 15.332031 -3.210938 15.28125 -2.921875 C 15.21875 -2.523438 15.140625 -2.117188 15.046875 -1.703125 C 14.953125 -1.285156 14.867188 -0.929688 14.796875 -0.640625 C 14.753906 -0.453125 14.660156 -0.296875 14.515625 -0.171875 C 14.367188 -0.0546875 14.191406 0 13.984375 0 L 0.90625 0 C 0.6875 0 0.539062 -0.125 0.46875 -0.375 C 0.394531 -0.625 0.453125 -0.816406 0.640625 -0.953125 C 0.742188 -1.023438 0.890625 -1.109375 1.078125 -1.203125 C 1.472656 -1.410156 1.671875 -1.726562 1.671875 -2.15625 L 1.671875 -13.734375 C 1.671875 -14.179688 1.472656 -14.5 1.078125 -14.6875 C 0.890625 -14.789062 0.742188 -14.878906 0.640625 -14.953125 Z M 0.640625 -14.953125 "/></g></g></g><g fill="#ffffff" fill-opacity="1"><g transform="translate(113.104216, 40.466342)"><g><path d="M 0.640625 -14.921875 C 0.453125 -15.054688 0.394531 -15.25 0.46875 -15.5 C 0.539062 -15.75 0.6875 -15.875 0.90625 -15.875 L 7.953125 -15.890625 C 9.972656 -15.910156 11.726562 -15.625 13.21875 -15.03125 C 14.707031 -14.4375 15.851562 -13.546875 16.65625 -12.359375 C 17.46875 -11.179688 17.875 -9.707031 17.875 -7.9375 C 17.875 -6.164062 17.46875 -4.691406 16.65625 -3.515625 C 15.851562 -2.347656 14.710938 -1.46875 13.234375 -0.875 C 11.753906 -0.289062 9.992188 0 7.953125 0 L 0.90625 0 C 0.6875 0 0.539062 -0.125 0.46875 -0.375 C 0.394531 -0.625 0.453125 -0.816406 0.640625 -0.953125 C 0.742188 -1.023438 0.890625 -1.109375 1.078125 -1.203125 C 1.472656 -1.410156 1.671875 -1.726562 1.671875 -2.15625 L 1.671875 -13.71875 C 1.671875 -14.144531 1.472656 -14.46875 1.078125 -14.6875 C 0.992188 -14.726562 0.910156 -14.769531 0.828125 -14.8125 C 0.753906 -14.863281 0.691406 -14.898438 0.640625 -14.921875 Z M 7.0625 -1.984375 C 7.0625 -1.785156 7.125 -1.625 7.25 -1.5 C 7.375 -1.375 7.53125 -1.3125 7.71875 -1.3125 C 9.34375 -1.3125 10.539062 -1.847656 11.3125 -2.921875 C 12.09375 -3.992188 12.484375 -5.660156 12.484375 -7.921875 C 12.484375 -10.171875 12.101562 -11.835938 11.34375 -12.921875 C 10.582031 -14.003906 9.375 -14.554688 7.71875 -14.578125 C 7.53125 -14.578125 7.375 -14.515625 7.25 -14.390625 C 7.125 -14.265625 7.0625 -14.097656 7.0625 -13.890625 Z M 7.0625 -1.984375 "/></g></g></g><g fill="#ffffff" fill-opacity="1"><g transform="translate(130.209537, 40.466342)"><g><path d="M 1.03125 0 C 0.800781 0 0.648438 -0.125 0.578125 -0.375 C 0.503906 -0.625 0.5625 -0.816406 0.75 -0.953125 C 0.832031 -1.003906 0.914062 -1.054688 1 -1.109375 C 1.09375 -1.160156 1.191406 -1.21875 1.296875 -1.28125 C 1.734375 -1.5 2.019531 -1.773438 2.15625 -2.109375 L 7.296875 -14.84375 L 6.796875 -16.203125 C 6.734375 -16.390625 6.738281 -16.535156 6.8125 -16.640625 C 6.882812 -16.742188 7.015625 -16.789062 7.203125 -16.78125 L 11.734375 -16.515625 C 11.941406 -16.492188 12.128906 -16.425781 12.296875 -16.3125 C 12.460938 -16.195312 12.578125 -16.039062 12.640625 -15.84375 L 18.078125 -2.109375 C 18.234375 -1.722656 18.507812 -1.421875 18.90625 -1.203125 C 18.976562 -1.160156 19.050781 -1.117188 19.125 -1.078125 C 19.195312 -1.035156 19.265625 -0.992188 19.328125 -0.953125 C 19.515625 -0.816406 19.570312 -0.625 19.5 -0.375 C 19.425781 -0.125 19.269531 0 19.03125 0 L 11.5625 0 C 11.34375 0 11.195312 -0.125 11.125 -0.375 C 11.050781 -0.625 11.109375 -0.816406 11.296875 -0.953125 C 11.359375 -0.972656 11.414062 -1.007812 11.46875 -1.0625 C 11.53125 -1.113281 11.59375 -1.160156 11.65625 -1.203125 C 11.988281 -1.503906 12.097656 -1.835938 11.984375 -2.203125 L 11.21875 -4.3125 L 4.609375 -4.3125 L 3.84375 -2.328125 L 3.78125 -2.109375 C 3.707031 -1.921875 3.695312 -1.726562 3.75 -1.53125 C 3.8125 -1.34375 3.914062 -1.191406 4.0625 -1.078125 C 4.09375 -1.066406 4.125 -1.046875 4.15625 -1.015625 C 4.195312 -0.992188 4.234375 -0.972656 4.265625 -0.953125 C 4.453125 -0.816406 4.507812 -0.625 4.4375 -0.375 C 4.363281 -0.125 4.21875 0 4 0 Z M 8.03125 -12.890625 L 5.140625 -5.609375 L 10.734375 -5.609375 Z M 8.03125 -12.890625 "/></g></g></g><g fill="#ffffff" fill-opacity="1"><g transform="translate(148.963858, 40.466342)"><g><path d="M 0.765625 -7.953125 C 0.710938 -9.628906 1.019531 -11.085938 1.6875 -12.328125 C 2.351562 -13.566406 3.34375 -14.523438 4.65625 -15.203125 C 5.96875 -15.878906 7.550781 -16.21875 9.40625 -16.21875 C 11.414062 -16.21875 13.054688 -15.890625 14.328125 -15.234375 C 15.609375 -14.578125 16.453125 -13.679688 16.859375 -12.546875 C 16.992188 -12.222656 17.0625 -11.859375 17.0625 -11.453125 C 17.0625 -11.046875 16.988281 -10.65625 16.84375 -10.28125 C 16.695312 -9.90625 16.453125 -9.582031 16.109375 -9.3125 C 15.765625 -9.050781 15.304688 -8.898438 14.734375 -8.859375 C 14.097656 -8.816406 13.523438 -8.894531 13.015625 -9.09375 C 12.503906 -9.289062 12.109375 -9.613281 11.828125 -10.0625 C 11.546875 -10.507812 11.425781 -11.078125 11.46875 -11.765625 C 11.539062 -12.671875 11.441406 -13.359375 11.171875 -13.828125 C 10.898438 -14.296875 10.535156 -14.601562 10.078125 -14.75 C 9.617188 -14.894531 9.117188 -14.929688 8.578125 -14.859375 C 7.796875 -14.773438 7.210938 -14.410156 6.828125 -13.765625 C 6.453125 -13.117188 6.226562 -12.265625 6.15625 -11.203125 C 6.082031 -10.148438 6.125 -8.941406 6.28125 -7.578125 C 6.375 -6.816406 6.53125 -6.082031 6.75 -5.375 C 6.976562 -4.664062 7.289062 -4.035156 7.6875 -3.484375 C 8.082031 -2.929688 8.582031 -2.492188 9.1875 -2.171875 C 9.800781 -1.847656 10.539062 -1.6875 11.40625 -1.6875 C 12.519531 -1.6875 13.476562 -2.050781 14.28125 -2.78125 C 15.082031 -3.507812 15.578125 -4.507812 15.765625 -5.78125 C 15.804688 -6.09375 15.890625 -6.394531 16.015625 -6.6875 C 16.148438 -6.976562 16.40625 -7.109375 16.78125 -7.078125 C 17.113281 -7.066406 17.320312 -6.910156 17.40625 -6.609375 C 17.5 -6.316406 17.523438 -5.988281 17.484375 -5.625 C 17.242188 -3.675781 16.4375 -2.203125 15.0625 -1.203125 C 13.695312 -0.210938 11.859375 0.28125 9.546875 0.28125 C 7.679688 0.28125 6.109375 -0.0703125 4.828125 -0.78125 C 3.546875 -1.488281 2.5625 -2.460938 1.875 -3.703125 C 1.195312 -4.941406 0.828125 -6.359375 0.765625 -7.953125 Z M 0.765625 -7.953125 "/></g></g></g><g fill="#ffffff" fill-opacity="1"><g transform="translate(166.311183, 40.466342)"><g><path d="M 2.09375 -12.625 C 1.851562 -12.269531 1.554688 -12.09375 1.203125 -12.09375 C 1.003906 -12.09375 0.832031 -12.164062 0.6875 -12.3125 C 0.550781 -12.46875 0.515625 -12.703125 0.578125 -13.015625 C 0.628906 -13.398438 0.703125 -13.800781 0.796875 -14.21875 C 0.898438 -14.632812 0.988281 -14.988281 1.0625 -15.28125 C 1.101562 -15.488281 1.195312 -15.644531 1.34375 -15.75 C 1.5 -15.863281 1.675781 -15.921875 1.875 -15.921875 L 15.40625 -15.921875 C 15.851562 -15.921875 16.132812 -15.707031 16.25 -15.28125 C 16.320312 -14.988281 16.398438 -14.632812 16.484375 -14.21875 C 16.578125 -13.800781 16.648438 -13.398438 16.703125 -13.015625 C 16.765625 -12.703125 16.722656 -12.46875 16.578125 -12.3125 C 16.441406 -12.164062 16.273438 -12.09375 16.078125 -12.09375 C 15.734375 -12.09375 15.4375 -12.269531 15.1875 -12.625 C 15 -12.925781 14.804688 -13.226562 14.609375 -13.53125 C 14.410156 -13.84375 14.113281 -14.101562 13.71875 -14.3125 C 13.320312 -14.519531 12.742188 -14.625 11.984375 -14.625 L 11.34375 -14.625 L 11.34375 -2.15625 C 11.34375 -1.757812 11.523438 -1.4375 11.890625 -1.1875 C 11.960938 -1.15625 12.03125 -1.117188 12.09375 -1.078125 C 12.164062 -1.035156 12.234375 -0.992188 12.296875 -0.953125 C 12.484375 -0.816406 12.535156 -0.625 12.453125 -0.375 C 12.367188 -0.125 12.210938 0 11.984375 0 L 5.1875 0 C 4.96875 0 4.820312 -0.125 4.75 -0.375 C 4.675781 -0.625 4.726562 -0.816406 4.90625 -0.953125 C 4.976562 -0.992188 5.050781 -1.035156 5.125 -1.078125 C 5.195312 -1.117188 5.269531 -1.160156 5.34375 -1.203125 C 5.53125 -1.296875 5.675781 -1.429688 5.78125 -1.609375 C 5.882812 -1.785156 5.941406 -1.96875 5.953125 -2.15625 L 5.953125 -14.625 L 5.296875 -14.625 C 4.535156 -14.625 3.957031 -14.519531 3.5625 -14.3125 C 3.175781 -14.101562 2.882812 -13.84375 2.6875 -13.53125 C 2.488281 -13.226562 2.289062 -12.925781 2.09375 -12.625 Z M 2.09375 -12.625 "/></g></g></g><g fill="#ffffff" fill-opacity="1"><g transform="translate(183.592676, 40.466342)"><g><path d="M 1.78125 0 C 1.5625 0 1.414062 -0.125 1.34375 -0.375 C 1.269531 -0.625 1.328125 -0.816406 1.515625 -0.953125 C 1.617188 -1.023438 1.765625 -1.109375 1.953125 -1.203125 C 2.347656 -1.410156 2.546875 -1.726562 2.546875 -2.15625 L 2.546875 -13.78125 C 2.546875 -14.21875 2.347656 -14.535156 1.953125 -14.734375 C 1.765625 -14.835938 1.617188 -14.925781 1.515625 -15 C 1.328125 -15.125 1.269531 -15.3125 1.34375 -15.5625 C 1.414062 -15.8125 1.5625 -15.9375 1.78125 -15.9375 L 8.59375 -15.9375 C 8.832031 -15.9375 8.988281 -15.8125 9.0625 -15.5625 C 9.132812 -15.3125 9.070312 -15.125 8.875 -15 C 8.820312 -14.945312 8.757812 -14.898438 8.6875 -14.859375 C 8.625 -14.816406 8.566406 -14.78125 8.515625 -14.75 C 8.128906 -14.519531 7.9375 -14.195312 7.9375 -13.78125 L 7.9375 -2.15625 C 7.9375 -1.738281 8.128906 -1.414062 8.515625 -1.1875 C 8.566406 -1.15625 8.625 -1.117188 8.6875 -1.078125 C 8.757812 -1.035156 8.820312 -0.992188 8.875 -0.953125 C 9.070312 -0.816406 9.132812 -0.625 9.0625 -0.375 C 8.988281 -0.125 8.832031 0 8.59375 0 Z M 1.78125 0 "/></g></g></g><g fill="#ffffff" fill-opacity="1"><g transform="translate(193.552528, 40.466342)"><g><path d="M 0.765625 -7.953125 C 0.765625 -9.628906 1.09375 -11.085938 1.75 -12.328125 C 2.414062 -13.566406 3.390625 -14.523438 4.671875 -15.203125 C 5.953125 -15.878906 7.523438 -16.21875 9.390625 -16.21875 C 11.265625 -16.21875 12.84375 -15.878906 14.125 -15.203125 C 15.40625 -14.523438 16.375 -13.566406 17.03125 -12.328125 C 17.695312 -11.085938 18.03125 -9.628906 18.03125 -7.953125 C 18.039062 -6.285156 17.710938 -4.835938 17.046875 -3.609375 C 16.378906 -2.378906 15.40625 -1.421875 14.125 -0.734375 C 12.84375 -0.0546875 11.265625 0.28125 9.390625 0.28125 C 7.523438 0.28125 5.953125 -0.0546875 4.671875 -0.734375 C 3.390625 -1.421875 2.414062 -2.378906 1.75 -3.609375 C 1.09375 -4.835938 0.765625 -6.285156 0.765625 -7.953125 Z M 8.578125 -14.859375 C 7.796875 -14.773438 7.210938 -14.410156 6.828125 -13.765625 C 6.441406 -13.117188 6.210938 -12.265625 6.140625 -11.203125 C 6.078125 -10.148438 6.125 -8.941406 6.28125 -7.578125 C 6.445312 -6.222656 6.691406 -5.039062 7.015625 -4.03125 C 7.335938 -3.03125 7.757812 -2.265625 8.28125 -1.734375 C 8.8125 -1.210938 9.46875 -0.992188 10.25 -1.078125 C 11.039062 -1.179688 11.617188 -1.550781 11.984375 -2.1875 C 12.359375 -2.820312 12.578125 -3.664062 12.640625 -4.71875 C 12.710938 -5.78125 12.671875 -6.984375 12.515625 -8.328125 C 12.347656 -9.691406 12.101562 -10.878906 11.78125 -11.890625 C 11.457031 -12.898438 11.035156 -13.671875 10.515625 -14.203125 C 9.992188 -14.742188 9.347656 -14.960938 8.578125 -14.859375 Z M 8.578125 -14.859375 "/></g></g></g><g fill="#ffffff" fill-opacity="1"><g transform="translate(212.021286, 40.466342)"><g><path d="M 0.90625 0 C 0.6875 0 0.539062 -0.125 0.46875 -0.375 C 0.394531 -0.625 0.453125 -0.816406 0.640625 -0.953125 C 0.742188 -1.023438 0.890625 -1.109375 1.078125 -1.203125 C 1.472656 -1.410156 1.671875 -1.726562 1.671875 -2.15625 L 1.671875 -13.78125 C 1.671875 -14.21875 1.472656 -14.535156 1.078125 -14.734375 C 0.890625 -14.835938 0.742188 -14.925781 0.640625 -15 C 0.460938 -15.113281 0.398438 -15.285156 0.453125 -15.515625 C 0.515625 -15.753906 0.640625 -15.894531 0.828125 -15.9375 L 6.625 -15.9375 C 7.0625 -15.9375 7.40625 -15.757812 7.65625 -15.40625 L 15.109375 -4.765625 L 15.109375 -13.78125 C 15.109375 -14.21875 14.910156 -14.535156 14.515625 -14.734375 C 14.316406 -14.835938 14.164062 -14.925781 14.0625 -15 C 13.875 -15.125 13.816406 -15.3125 13.890625 -15.5625 C 13.960938 -15.8125 14.109375 -15.9375 14.328125 -15.9375 L 17.296875 -15.9375 C 17.535156 -15.9375 17.691406 -15.8125 17.765625 -15.5625 C 17.835938 -15.3125 17.78125 -15.125 17.59375 -15 C 17.53125 -14.945312 17.46875 -14.898438 17.40625 -14.859375 C 17.351562 -14.816406 17.289062 -14.78125 17.21875 -14.75 C 16.832031 -14.519531 16.640625 -14.195312 16.640625 -13.78125 L 16.640625 -2.15625 C 16.640625 -1.738281 16.832031 -1.414062 17.21875 -1.1875 C 17.289062 -1.15625 17.351562 -1.117188 17.40625 -1.078125 C 17.46875 -1.035156 17.53125 -0.992188 17.59375 -0.953125 C 17.78125 -0.816406 17.863281 -0.625 17.84375 -0.375 C 17.820312 -0.125 17.640625 0 17.296875 0 L 12.546875 0 C 12.109375 0 11.765625 -0.179688 11.515625 -0.546875 L 3.203125 -12.515625 L 3.203125 -2.15625 C 3.203125 -1.738281 3.394531 -1.414062 3.78125 -1.1875 C 3.84375 -1.15625 3.90625 -1.117188 3.96875 -1.078125 C 4.03125 -1.035156 4.09375 -0.992188 4.15625 -0.953125 C 4.34375 -0.816406 4.398438 -0.625 4.328125 -0.375 C 4.253906 -0.125 4.101562 0 3.875 0 Z M 0.90625 0 "/></g></g></g><g fill="#121212" fill-opacity="1"><g transform="translate(12.395169, 40.84098)"><g><path d="M 0.625 -14.53125 C 0.4375 -14.664062 0.378906 -14.851562 0.453125 -15.09375 C 0.523438 -15.332031 0.664062 -15.453125 0.875 -15.453125 L 7.75 -15.484375 C 9.71875 -15.492188 11.425781 -15.296875 12.875 -14.890625 C 14.320312 -14.484375 15.4375 -13.875 16.21875 -13.0625 C 17.007812 -12.25 17.40625 -11.234375 17.40625 -10.015625 C 17.40625 -8.804688 17.007812 -7.796875 16.21875 -6.984375 C 15.4375 -6.179688 14.320312 -5.578125 12.875 -5.171875 C 11.4375 -4.773438 9.726562 -4.578125 7.75 -4.578125 L 6.875 -4.578125 L 6.875 -2.09375 C 6.875 -1.695312 7.054688 -1.382812 7.421875 -1.15625 C 7.492188 -1.125 7.554688 -1.085938 7.609375 -1.046875 C 7.671875 -1.003906 7.734375 -0.960938 7.796875 -0.921875 C 7.972656 -0.796875 8.023438 -0.609375 7.953125 -0.359375 C 7.890625 -0.117188 7.742188 0 7.515625 0 L 0.90625 0 C 0.675781 0 0.523438 -0.117188 0.453125 -0.359375 C 0.378906 -0.609375 0.4375 -0.796875 0.625 -0.921875 C 0.675781 -0.960938 0.738281 -1.003906 0.8125 -1.046875 C 0.894531 -1.085938 0.972656 -1.128906 1.046875 -1.171875 C 1.203125 -1.242188 1.332031 -1.359375 1.4375 -1.515625 C 1.550781 -1.671875 1.613281 -1.835938 1.625 -2.015625 L 1.625 -13.359375 C 1.625 -13.773438 1.429688 -14.085938 1.046875 -14.296875 C 0.960938 -14.335938 0.882812 -14.378906 0.8125 -14.421875 C 0.738281 -14.460938 0.675781 -14.5 0.625 -14.53125 Z M 6.875 -13.140625 L 6.875 -6.5 C 6.875 -6.320312 6.929688 -6.171875 7.046875 -6.046875 C 7.171875 -5.921875 7.328125 -5.859375 7.515625 -5.859375 C 9.097656 -5.859375 10.265625 -6.191406 11.015625 -6.859375 C 11.773438 -7.535156 12.15625 -8.582031 12.15625 -10 C 12.15625 -11.425781 11.785156 -12.476562 11.046875 -13.15625 C 10.304688 -13.832031 9.128906 -14.175781 7.515625 -14.1875 C 7.328125 -14.1875 7.171875 -14.125 7.046875 -14 C 6.929688 -13.882812 6.875 -13.726562 6.875 -13.53125 Z M 6.875 -13.140625 "/></g></g></g><g fill="#121212" fill-opacity="1"><g transform="translate(29.044908, 40.84098)"><g><path d="M 0.625 -14.53125 C 0.4375 -14.664062 0.378906 -14.851562 0.453125 -15.09375 C 0.523438 -15.332031 0.664062 -15.453125 0.875 -15.453125 L 7.75 -15.484375 C 9.71875 -15.492188 11.425781 -15.207031 12.875 -14.625 C 14.320312 -14.050781 15.4375 -13.1875 16.21875 -12.03125 C 17.007812 -10.882812 17.40625 -9.453125 17.40625 -7.734375 C 17.40625 -6.003906 17.007812 -4.566406 16.21875 -3.421875 C 15.4375 -2.285156 14.320312 -1.429688 12.875 -0.859375 C 11.4375 -0.285156 9.726562 0 7.75 0 L 0.875 0 C 0.664062 0 0.523438 -0.117188 0.453125 -0.359375 C 0.378906 -0.609375 0.4375 -0.796875 0.625 -0.921875 C 0.71875 -0.992188 0.859375 -1.078125 1.046875 -1.171875 C 1.429688 -1.378906 1.625 -1.6875 1.625 -2.09375 L 1.625 -13.359375 C 1.625 -13.773438 1.429688 -14.085938 1.046875 -14.296875 C 0.960938 -14.335938 0.882812 -14.378906 0.8125 -14.421875 C 0.738281 -14.460938 0.675781 -14.5 0.625 -14.53125 Z M 6.875 -1.921875 C 6.875 -1.734375 6.929688 -1.578125 7.046875 -1.453125 C 7.171875 -1.335938 7.328125 -1.28125 7.515625 -1.28125 C 9.097656 -1.28125 10.265625 -1.800781 11.015625 -2.84375 C 11.773438 -3.882812 12.15625 -5.503906 12.15625 -7.703125 C 12.15625 -9.898438 11.785156 -11.523438 11.046875 -12.578125 C 10.304688 -13.640625 9.128906 -14.175781 7.515625 -14.1875 C 7.328125 -14.1875 7.171875 -14.125 7.046875 -14 C 6.929688 -13.882812 6.875 -13.726562 6.875 -13.53125 Z M 6.875 -1.921875 "/></g></g></g><g fill="#121212" fill-opacity="1"><g transform="translate(45.587633, 40.84098)"><g><path d="M 0.625 -14.5625 C 0.4375 -14.6875 0.378906 -14.867188 0.453125 -15.109375 C 0.523438 -15.359375 0.664062 -15.484375 0.875 -15.484375 L 13.171875 -15.484375 C 13.367188 -15.484375 13.539062 -15.425781 13.6875 -15.3125 C 13.832031 -15.195312 13.929688 -15.035156 13.984375 -14.828125 C 14.046875 -14.546875 14.125 -14.203125 14.21875 -13.796875 C 14.3125 -13.398438 14.390625 -13.007812 14.453125 -12.625 C 14.492188 -12.332031 14.445312 -12.109375 14.3125 -11.953125 C 14.175781 -11.804688 14.007812 -11.734375 13.8125 -11.734375 C 13.5 -11.734375 13.21875 -11.90625 12.96875 -12.25 C 12.78125 -12.539062 12.585938 -12.835938 12.390625 -13.140625 C 12.191406 -13.441406 11.898438 -13.691406 11.515625 -13.890625 C 11.140625 -14.085938 10.582031 -14.1875 9.84375 -14.1875 L 7.515625 -14.1875 C 7.328125 -14.1875 7.171875 -14.128906 7.046875 -14.015625 C 6.929688 -13.898438 6.875 -13.742188 6.875 -13.546875 L 6.875 -8.234375 L 8.40625 -8.234375 C 8.96875 -8.234375 9.394531 -8.296875 9.6875 -8.421875 C 9.988281 -8.546875 10.207031 -8.695312 10.34375 -8.875 C 10.476562 -9.0625 10.578125 -9.25 10.640625 -9.4375 C 10.710938 -9.625 10.796875 -9.78125 10.890625 -9.90625 C 10.984375 -10.039062 11.128906 -10.113281 11.328125 -10.125 C 11.554688 -10.132812 11.734375 -9.96875 11.859375 -9.625 C 11.984375 -9.289062 12.0625 -8.875 12.09375 -8.375 C 12.125 -7.875 12.113281 -7.375 12.0625 -6.875 C 12.007812 -6.382812 11.910156 -5.972656 11.765625 -5.640625 C 11.628906 -5.316406 11.445312 -5.164062 11.21875 -5.1875 C 11.019531 -5.195312 10.882812 -5.265625 10.8125 -5.390625 C 10.738281 -5.523438 10.671875 -5.679688 10.609375 -5.859375 C 10.554688 -6.035156 10.460938 -6.207031 10.328125 -6.375 C 10.191406 -6.550781 9.976562 -6.695312 9.6875 -6.8125 C 9.394531 -6.925781 8.96875 -6.984375 8.40625 -6.984375 L 6.875 -6.984375 L 6.875 -2.09375 C 6.875 -1.695312 7.054688 -1.382812 7.421875 -1.15625 C 7.484375 -1.125 7.546875 -1.085938 7.609375 -1.046875 C 7.671875 -1.003906 7.734375 -0.960938 7.796875 -0.921875 C 7.972656 -0.796875 8.023438 -0.609375 7.953125 -0.359375 C 7.890625 -0.117188 7.742188 0 7.515625 0 L 0.875 0 C 0.664062 0 0.523438 -0.117188 0.453125 -0.359375 C 0.378906 -0.609375 0.4375 -0.796875 0.625 -0.921875 C 0.71875 -0.992188 0.859375 -1.078125 1.046875 -1.171875 C 1.429688 -1.378906 1.625 -1.6875 1.625 -2.09375 L 1.625 -13.375 C 1.625 -13.800781 1.429688 -14.109375 1.046875 -14.296875 C 0.859375 -14.398438 0.71875 -14.488281 0.625 -14.5625 Z M 0.625 -14.5625 "/></g></g></g></svg>